<svg xmlns="http://www.w3.org/2000/svg" version="1.1" viewBox="-5.0 -10.0 110.0 135.0">
 <path d="m81.898 18.531h-30.812c-2.9141-4.5352-7.6562-7.5742-12.992-8.3242-5.3398-0.74609-10.738 0.86719-14.785 4.4219-4.0469 3.5586-6.3438 8.7031-6.2891 14.094 0.054688 5.3867 2.457 10.484 6.582 13.957v46.211c0 0.29297 0.11719 0.57812 0.32422 0.78516 0.21094 0.20703 0.49219 0.32422 0.78906 0.32422h57.184c0.61328 0 1.1133-0.49609 1.1133-1.1094v-69.246c0-0.29688-0.11719-0.57812-0.32422-0.78906-0.21094-0.20703-0.49219-0.32422-0.78906-0.32422zm-27.887 9.9805c0-0.49219-0.019531-0.98438-0.058594-1.4688h21.508v15.09h-27.441c3.8203-3.5 5.9922-8.4414 5.9922-13.621zm-34.801 0c0-4.3203 1.7148-8.4648 4.7695-11.52 3.0547-3.0508 7.1992-4.7695 11.52-4.7695 4.3164 0 8.4609 1.7188 11.516 4.7734 3.0547 3.0547 4.7695 7.1953 4.7695 11.516 0 4.3203-1.7148 8.4609-4.7695 11.516-3.0547 3.0547-7.1953 4.7734-11.516 4.7734-4.3203-0.003906-8.457-1.7227-11.512-4.7773-3.0547-3.0547-4.7734-7.1953-4.7773-11.512zm61.578 59.266h-54.965v-43.492c2.8906 1.7773 6.2148 2.7227 9.6094 2.7344 3.3906 0.011719 6.7227-0.91016 9.6289-2.6641h31.508c0.29688 0 0.57813-0.11719 0.78906-0.32812 0.20703-0.20703 0.32422-0.48828 0.32422-0.78516v-17.309c0-0.29688-0.11719-0.57812-0.32422-0.78906-0.21094-0.20703-0.49219-0.32422-0.78906-0.32422h-22.93c-0.28516-1.4023-0.73438-2.7656-1.3359-4.0664h28.484zm-43.336-56.199c0-1.0781-0.875-1.957-1.9531-1.957-2.0898 0-3.8594-1.543-4.1406-3.6133-0.27734-2.0703 1.0156-4.0312 3.0312-4.5859v-1.1016c0-0.61328 0.49609-1.1094 1.1094-1.1094s1.1094 0.49609 1.1094 1.1094v1.1016c1.8086 0.5 3.0625 2.1445 3.0664 4.0234 0 0.61328-0.5 1.1094-1.1133 1.1094s-1.1094-0.49609-1.1094-1.1094c0-0.78906-0.47656-1.5-1.207-1.8047-0.73047-0.30078-1.5703-0.13281-2.1289 0.42578-0.55859 0.55859-0.72266 1.3984-0.42188 2.1289 0.30469 0.73047 1.0156 1.2031 1.8047 1.2031 2.0898 0 3.8594 1.5469 4.1406 3.6172 0.27734 2.0703-1.0156 4.0273-3.0312 4.5859v1.1016-0.003906c0 0.61328-0.49609 1.1133-1.1094 1.1133s-1.1094-0.5-1.1094-1.1133v-1.0977c-1.8125-0.50391-3.0625-2.1484-3.0664-4.0273 0-0.61328 0.5-1.1094 1.1133-1.1094s1.1094 0.49609 1.1094 1.1094c0 1.0781 0.875 1.9531 1.9531 1.9531s1.9531-0.875 1.9531-1.9531zm-1.9531 10.68c5.5625 0 10.574-3.3477 12.703-8.4844 2.1289-5.1406 0.95312-11.051-2.9805-14.984-3.9297-3.9336-9.8438-5.1094-14.984-2.9805-5.1367 2.125-8.4844 7.1406-8.4844 12.703 0.007813 7.5859 6.1562 13.738 13.746 13.746zm0-25.273c4.6602 0 8.8633 2.8086 10.648 7.1133 1.7852 4.3086 0.79687 9.2656-2.5 12.562-3.293 3.2969-8.2539 4.2812-12.559 2.5-4.3086-1.7852-7.1172-5.9883-7.1172-10.648 0.007813-6.3633 5.1641-11.52 11.527-11.527zm-5.4609 40.836h7.6953c0.61328 0 1.1094-0.5 1.1094-1.1133v-7.6914c0.003906-0.29688-0.11328-0.58203-0.32422-0.78906-0.20703-0.21094-0.49219-0.32812-0.78516-0.32812h-7.6953c-0.29297 0-0.57812 0.11719-0.78516 0.32812-0.20703 0.20703-0.32422 0.48828-0.32422 0.78516v7.6953-0.003906c-0.003907 0.29688 0.11328 0.58203 0.32422 0.78906 0.20703 0.21094 0.49219 0.32812 0.78516 0.32812zm1.1094-7.6953h5.4727v5.4766h-5.4688zm11.836 7.6953h7.6953c0.61328 0 1.1094-0.5 1.1094-1.1133v-7.6914c0.003907-0.29688-0.11328-0.58203-0.32422-0.78906-0.20703-0.21094-0.48828-0.32812-0.78516-0.32812h-7.6953c-0.29297 0-0.57422 0.11719-0.78516 0.32812-0.20703 0.20703-0.32422 0.48828-0.32422 0.78516v7.6953-0.003906c0 0.29688 0.11719 0.58203 0.32422 0.78906 0.20703 0.21094 0.49219 0.32812 0.78516 0.32812zm1.1172-7.6953h5.4727l-0.003907 5.4766h-5.4688zm19.523-2.2266h-7.6914c-0.61328 0-1.1133 0.5-1.1133 1.1133v7.6953-0.003906c0 0.61719 0.5 1.1133 1.1133 1.1133h7.6953-0.003906c0.61328 0 1.1133-0.49609 1.1133-1.1133v-7.6875c0-0.29688-0.11719-0.58203-0.32422-0.78906-0.21094-0.21094-0.49219-0.32812-0.78906-0.32812zm-1.1094 7.7031h-5.4727v-5.4766h5.4727zm-32.477 15.164h7.6953c0.29297 0 0.57812-0.11719 0.78516-0.32422 0.20703-0.21094 0.32422-0.49219 0.32422-0.78906v-7.6914c0-0.29688-0.11719-0.57813-0.32422-0.78516-0.20703-0.21094-0.49219-0.32812-0.78516-0.32812h-7.6953c-0.29297 0-0.57812 0.11719-0.78516 0.32812-0.20703 0.20703-0.32422 0.48828-0.32422 0.78516v7.6953-0.003906c0 0.29688 0.11719 0.57812 0.32422 0.78906 0.20703 0.20703 0.49219 0.32422 0.78516 0.32422zm1.1094-7.6953h5.4727v5.4727h-5.4688zm11.836 7.6953h7.6953c0.61328 0 1.1094-0.49609 1.1094-1.1133v-7.6914c0-0.61328-0.49609-1.1133-1.1094-1.1133h-7.6953c-0.29297 0-0.57422 0.11719-0.78516 0.32812-0.20703 0.20703-0.32422 0.48828-0.32422 0.78516v7.6953-0.003906c0 0.29688 0.11719 0.57812 0.32422 0.78906 0.21094 0.20703 0.49219 0.32422 0.78516 0.32422zm1.1172-7.6953h5.4727v5.4727h-5.4727zm19.527-2.2227h-7.6953c-0.61328 0-1.1133 0.5-1.1133 1.1133v7.6953-0.003906c0 0.61719 0.5 1.1133 1.1133 1.1133h7.6953-0.003906c0.29688 0 0.57812-0.11719 0.78516-0.32422 0.21094-0.21094 0.32812-0.49219 0.32812-0.78906v-7.6914c0-0.29688-0.11719-0.57813-0.32812-0.78516-0.20703-0.21094-0.48828-0.32812-0.78516-0.32812zm-1.1094 7.6953h-5.4766v-5.4727h5.4727zm1.1055 5.2578h-33.586c-0.61328 0-1.1094 0.49609-1.1094 1.1094v7.6914c0 0.29297 0.11719 0.57422 0.32422 0.78516 0.20703 0.20703 0.49219 0.32422 0.78516 0.32422h33.586c0.29688 0 0.57812-0.11719 0.78516-0.32422 0.21094-0.21094 0.32812-0.49219 0.32812-0.78516v-7.6953c-0.003906-0.61328-0.5-1.1055-1.1133-1.1055zm-1.1094 7.6953-31.363-0.003906v-5.4766h31.363zm14.055-33.598h-7.6914c-0.61328 0-1.1133 0.5-1.1133 1.1133v33.59c0 0.61328 0.5 1.1094 1.1133 1.1094h7.6953-0.003907c0.29688 0 0.57813-0.11719 0.78906-0.32422 0.20703-0.21094 0.32422-0.49219 0.32422-0.78516v-33.586c0-0.29688-0.11719-0.58203-0.32422-0.78906-0.20703-0.21094-0.49219-0.32812-0.78906-0.32812zm-1.1094 33.59h-5.4727v-31.363h5.4727zm-8.082-41.289h3.7148c1.1133 0 2.0156-0.90234 2.0156-2.0156v-8c0-1.1133-0.90234-2.0156-2.0156-2.0156h-3.7148c-1.1133 0-2.0117 0.90234-2.0156 2.0156v8c0.003907 1.1133 0.90234 2.0156 2.0156 2.0156zm0.20703-9.8086h3.3008v7.5898h-3.3008zm-10.539 9.8086h3.7148c1.1133 0 2.0117-0.90234 2.0156-2.0156v-8c-0.003906-1.1133-0.90234-2.0156-2.0156-2.0156h-3.7148c-1.1133 0-2.0156 0.90234-2.0156 2.0156v8c0 1.1133 0.90234 2.0156 2.0156 2.0156zm0.20703-9.8086h3.3008v7.5898h-3.3008z"/>
<text x="0.0" y="117.5" font-size="5.0" font-weight="bold" font-family="Arbeit Regular, Helvetica, Arial-Unicode, Arial, Sans-serif" fill="#000000">Created by dhanis</text><text x="0.0" y="122.5" font-size="5.0" font-weight="bold" font-family="Arbeit Regular, Helvetica, Arial-Unicode, Arial, Sans-serif" fill="#000000">from Noun Project</text></svg>