<svg xmlns="http://www.w3.org/2000/svg" xmlns:xlink="http://www.w3.org/1999/xlink" version="1.1" x="0px" y="0px" viewBox="0 0 96 120" style="enable-background:new 0 0 96 96;" xml:space="preserve"><path d="M82.624,63.669c0-5.34-4.344-9.685-9.685-9.685c-5.34,0-9.685,4.344-9.685,9.685s4.344,9.685,9.685,9.685  C78.28,73.354,82.624,69.009,82.624,63.669z M72.94,71.016c-4.051,0-7.347-3.296-7.347-7.347s3.296-7.347,7.347-7.347  c4.051,0,7.347,3.296,7.347,7.347S76.991,71.016,72.94,71.016z M78.099,76.124c0.716,0.32,1.487,0.48,2.258,0.48  c1.415,0,2.83-0.538,3.905-1.613c1.661-1.661,2.038-4.133,1.132-6.163c2.077-0.795,3.557-2.81,3.557-5.159  c0-2.349-1.481-4.364-3.557-5.159c0.906-2.031,0.528-4.503-1.132-6.163c-1.661-1.661-4.133-2.038-6.163-1.132  c-0.795-2.077-2.81-3.558-5.159-3.558c-2.349,0-4.364,1.481-5.159,3.558c-2.031-0.906-4.503-0.528-6.163,1.132  c-1.661,1.661-2.038,4.133-1.132,6.163c-2.077,0.795-3.558,2.81-3.558,5.159c0,2.349,1.481,4.364,3.558,5.159  c-0.906,2.031-0.528,4.502,1.132,6.163c1.075,1.075,2.49,1.613,3.905,1.613c0.771,0,1.542-0.161,2.258-0.481  c0.795,2.077,2.81,3.558,5.159,3.558C75.289,79.681,77.303,78.2,78.099,76.124z M72.94,77.344c-1.748,0-3.177-1.422-3.184-3.17  c0-0.069-0.008-0.136-0.019-0.201c-0.001-0.006-0.002-0.012-0.003-0.018c-0.013-0.069-0.033-0.135-0.058-0.199  c-0.002-0.006-0.004-0.013-0.007-0.019c-0.027-0.065-0.059-0.127-0.097-0.186c-0.003-0.005-0.006-0.011-0.01-0.016  c-0.042-0.063-0.089-0.121-0.141-0.175c-0.001-0.001-0.002-0.003-0.003-0.004c-0.001-0.001-0.001-0.001-0.002-0.001  C69.36,73.3,69.3,73.25,69.236,73.207c-0.002-0.001-0.005-0.003-0.007-0.004c-0.061-0.04-0.126-0.075-0.195-0.104  c-0.003-0.001-0.007-0.002-0.01-0.004c-0.066-0.027-0.136-0.048-0.208-0.063c-0.002,0-0.004,0-0.006-0.001  c-0.069-0.013-0.141-0.021-0.214-0.021c-0.002,0-0.004,0-0.007,0c-0.001,0-0.002,0-0.003,0c-0.002,0-0.003,0-0.005,0  c-0.068,0-0.135,0.008-0.2,0.019c-0.006,0.001-0.013,0.002-0.019,0.003c-0.068,0.013-0.134,0.033-0.197,0.058  c-0.007,0.003-0.014,0.005-0.021,0.008c-0.065,0.026-0.126,0.059-0.184,0.096c-0.006,0.004-0.012,0.007-0.018,0.011  c-0.062,0.041-0.12,0.088-0.173,0.14c-0.002,0.002-0.004,0.003-0.005,0.004c-1.241,1.23-3.257,1.226-4.493-0.01  c-1.236-1.236-1.241-3.252-0.01-4.494c0.001-0.001,0.002-0.003,0.004-0.005c0.052-0.053,0.099-0.111,0.141-0.174  c0.004-0.006,0.007-0.012,0.011-0.018c0.037-0.058,0.07-0.12,0.096-0.185c0.003-0.007,0.005-0.013,0.007-0.02  c0.025-0.064,0.044-0.129,0.058-0.198c0.001-0.006,0.002-0.012,0.003-0.018c0.012-0.065,0.019-0.132,0.019-0.201  c0-0.002,0-0.005,0-0.007c0-0.004,0-0.007,0-0.011c-0.002-0.151-0.032-0.295-0.086-0.428c-0.001-0.002-0.001-0.004-0.002-0.005  c-0.029-0.07-0.064-0.136-0.106-0.199c-0.001-0.001-0.001-0.002-0.002-0.004c-0.043-0.065-0.093-0.125-0.148-0.18  c-0.001-0.001-0.001-0.002-0.002-0.002c-0.002-0.002-0.003-0.003-0.005-0.004c-0.053-0.052-0.111-0.099-0.173-0.14  c-0.006-0.004-0.012-0.007-0.019-0.011c-0.058-0.037-0.119-0.069-0.184-0.096c-0.007-0.003-0.015-0.005-0.022-0.008  c-0.063-0.024-0.128-0.044-0.196-0.057c-0.007-0.001-0.014-0.002-0.021-0.003c-0.065-0.011-0.131-0.019-0.199-0.019  c-1.748-0.007-3.17-1.436-3.17-3.184c0-1.748,1.422-3.177,3.17-3.184c0.07,0,0.139-0.008,0.205-0.02  c0.006-0.001,0.011-0.002,0.017-0.003c0.068-0.013,0.134-0.033,0.197-0.058c0.007-0.003,0.013-0.005,0.02-0.007  c0.064-0.026,0.125-0.059,0.183-0.096c0.006-0.004,0.012-0.007,0.018-0.011c0.061-0.041,0.118-0.087,0.171-0.138  c0.002-0.002,0.004-0.003,0.006-0.005c0.001-0.001,0.001-0.002,0.002-0.003c0.055-0.055,0.104-0.114,0.147-0.179  c0.001-0.002,0.002-0.004,0.003-0.006c0.041-0.062,0.076-0.128,0.105-0.197c0.001-0.002,0.002-0.005,0.003-0.007  c0.027-0.068,0.049-0.138,0.064-0.211l0,0c0.014-0.07,0.021-0.141,0.022-0.215c0-0.004,0.001-0.008,0.001-0.012  c0-0.002,0-0.005,0-0.007c0-0.069-0.008-0.135-0.019-0.201c-0.001-0.006-0.002-0.012-0.003-0.018  c-0.013-0.068-0.033-0.135-0.058-0.198c-0.002-0.006-0.005-0.013-0.007-0.019c-0.027-0.065-0.059-0.127-0.097-0.186  c-0.003-0.005-0.006-0.011-0.01-0.016c-0.042-0.063-0.089-0.121-0.142-0.175c-0.001-0.001-0.002-0.003-0.003-0.004  c-1.231-1.242-1.226-3.257,0.01-4.493c1.236-1.236,3.252-1.241,4.493-0.01c0.002,0.002,0.004,0.003,0.005,0.004  c0.053,0.052,0.111,0.099,0.173,0.14c0.006,0.004,0.012,0.007,0.018,0.011c0.058,0.037,0.12,0.07,0.184,0.096  c0.007,0.003,0.014,0.005,0.021,0.008c0.063,0.025,0.129,0.044,0.197,0.057c0.006,0.001,0.013,0.002,0.019,0.003  c0.065,0.012,0.132,0.019,0.2,0.019c0.002,0,0.005,0,0.007,0c0.003,0,0.006,0,0.009,0c0.57-0.001,1.034-0.409,1.136-0.946  c0.001-0.004,0.001-0.008,0.002-0.012c0.012-0.067,0.019-0.135,0.02-0.205c0.008-1.748,1.436-3.17,3.184-3.17  c1.748,0,3.177,1.422,3.184,3.17c0,0.069,0.008,0.135,0.019,0.201c0.001,0.006,0.002,0.012,0.003,0.019  c0.013,0.068,0.033,0.134,0.058,0.198c0.003,0.007,0.005,0.013,0.007,0.02c0.027,0.065,0.059,0.127,0.096,0.185  c0.004,0.006,0.007,0.011,0.01,0.017c0.042,0.063,0.089,0.121,0.141,0.175c0.001,0.001,0.002,0.003,0.003,0.004  c0.001,0.001,0.001,0.001,0.002,0.001c0.055,0.055,0.115,0.105,0.18,0.148c0.002,0.001,0.004,0.002,0.006,0.004  c0.062,0.041,0.127,0.076,0.196,0.104c0.003,0.001,0.006,0.002,0.009,0.003c0.067,0.027,0.137,0.049,0.209,0.063  c0.002,0,0.003,0,0.005,0.001c0.07,0.014,0.141,0.021,0.215,0.022c0.002,0,0.004,0,0.007,0c0.001,0,0.002,0,0.003,0  c0.002,0,0.003,0,0.005,0c0.068,0,0.135-0.008,0.2-0.019c0.007-0.001,0.013-0.002,0.02-0.003c0.068-0.013,0.133-0.033,0.196-0.057  c0.007-0.003,0.015-0.005,0.022-0.008c0.064-0.026,0.125-0.059,0.183-0.096c0.006-0.004,0.013-0.007,0.019-0.012  c0.062-0.041,0.12-0.088,0.172-0.14c0.002-0.002,0.004-0.003,0.005-0.004c1.241-1.231,3.257-1.226,4.493,0.01  c1.236,1.236,1.241,3.252,0.01,4.493c-0.001,0.001-0.002,0.003-0.003,0.004c-0.053,0.053-0.1,0.112-0.141,0.175  c-0.004,0.006-0.007,0.011-0.01,0.017c-0.037,0.059-0.07,0.12-0.097,0.186c-0.003,0.006-0.005,0.013-0.007,0.02  c-0.025,0.064-0.044,0.13-0.058,0.198c-0.001,0.006-0.002,0.012-0.003,0.018c-0.012,0.065-0.019,0.132-0.019,0.201  c0,0.002,0,0.005,0,0.007c0,0.004,0,0.008,0.001,0.012c0.001,0.073,0.008,0.145,0.022,0.215l0,0  c0.014,0.073,0.036,0.144,0.064,0.211c0.001,0.002,0.002,0.005,0.003,0.007c0.029,0.069,0.064,0.135,0.105,0.197  c0.001,0.002,0.002,0.004,0.003,0.006c0.043,0.064,0.093,0.124,0.147,0.179c0.001,0.001,0.001,0.002,0.002,0.003  c0.002,0.002,0.004,0.003,0.006,0.005c0.052,0.051,0.109,0.098,0.171,0.138c0.006,0.004,0.012,0.007,0.018,0.011  c0.058,0.037,0.119,0.069,0.184,0.096c0.007,0.003,0.013,0.005,0.02,0.007c0.063,0.025,0.129,0.045,0.197,0.058  c0.006,0.001,0.011,0.002,0.017,0.003c0.067,0.012,0.135,0.02,0.205,0.02c1.748,0.008,3.17,1.436,3.17,3.184  c0,1.748-1.422,3.177-3.17,3.184c-0.068,0-0.134,0.008-0.199,0.019c-0.007,0.001-0.014,0.002-0.021,0.003  c-0.068,0.013-0.133,0.033-0.196,0.057c-0.007,0.003-0.015,0.005-0.022,0.008c-0.064,0.026-0.126,0.059-0.184,0.096  c-0.006,0.004-0.012,0.007-0.019,0.011c-0.062,0.041-0.12,0.088-0.173,0.14c-0.002,0.002-0.003,0.003-0.005,0.004  c-0.001,0.001-0.001,0.002-0.002,0.002c-0.055,0.055-0.105,0.115-0.148,0.18c-0.001,0.001-0.001,0.002-0.002,0.004  c-0.041,0.062-0.077,0.129-0.106,0.199c-0.001,0.002-0.001,0.004-0.002,0.005c-0.054,0.132-0.084,0.277-0.086,0.428  c0,0.004,0,0.007,0,0.011c0,0.002,0,0.005,0,0.007c0,0.069,0.008,0.136,0.019,0.201c0.001,0.006,0.002,0.012,0.003,0.018  c0.013,0.069,0.033,0.135,0.058,0.198c0.002,0.006,0.005,0.013,0.007,0.019c0.027,0.065,0.059,0.127,0.097,0.186  c0.003,0.005,0.006,0.011,0.01,0.016c0.042,0.063,0.089,0.122,0.142,0.175c0.001,0.001,0.002,0.002,0.003,0.004  c1.231,1.242,1.226,3.257-0.01,4.493c-1.236,1.236-3.252,1.241-4.493,0.01c-0.002-0.002-0.003-0.002-0.005-0.004  c-0.053-0.052-0.111-0.099-0.173-0.14c-0.006-0.004-0.012-0.007-0.018-0.011c-0.058-0.037-0.12-0.07-0.185-0.096  c-0.007-0.003-0.014-0.005-0.02-0.008c-0.063-0.025-0.129-0.044-0.197-0.058c-0.006-0.001-0.013-0.002-0.019-0.003  c-0.065-0.012-0.132-0.019-0.2-0.019c-0.002,0-0.004,0-0.005,0c-0.001,0-0.002,0-0.003,0c-0.002,0-0.004,0-0.007,0  c-0.073,0.001-0.145,0.008-0.214,0.021c-0.002,0-0.004,0-0.006,0.001c-0.072,0.014-0.141,0.036-0.208,0.063  c-0.003,0.001-0.007,0.002-0.01,0.004c-0.069,0.028-0.134,0.063-0.195,0.104c-0.002,0.001-0.005,0.003-0.007,0.004  c-0.065,0.043-0.125,0.093-0.179,0.148c-0.001,0.001-0.001,0.001-0.002,0.001c-0.001,0.001-0.002,0.003-0.003,0.004  c-0.052,0.053-0.1,0.112-0.141,0.175c-0.004,0.006-0.007,0.011-0.01,0.017c-0.037,0.058-0.07,0.12-0.096,0.185  c-0.003,0.007-0.005,0.013-0.007,0.02c-0.025,0.063-0.044,0.129-0.058,0.198c-0.001,0.006-0.002,0.012-0.003,0.019  c-0.012,0.065-0.019,0.132-0.019,0.201C76.116,75.922,74.688,77.344,72.94,77.344z M78.023,60.917l-4.978,6.875  c-0.208,0.287-0.536,0.465-0.89,0.482c-0.019,0.001-0.038,0.001-0.057,0.001c-0.334,0-0.653-0.143-0.876-0.395l-3.296-3.729  c-0.427-0.484-0.382-1.222,0.102-1.65c0.484-0.428,1.222-0.382,1.65,0.102l2.329,2.636l4.122-5.693  c0.378-0.523,1.109-0.64,1.632-0.261C78.285,59.663,78.402,60.394,78.023,60.917z M88.004,88.301  c0.174,0.467,0.033,0.993-0.352,1.31c-0.385,0.317-0.928,0.355-1.354,0.095l-4.265-2.612l-1.514,4.766  c-0.151,0.475-0.587,0.802-1.085,0.814c-0.01,0-0.019,0-0.029,0c-0.487,0-0.924-0.302-1.095-0.761l-3.429-9.2  c-0.225-0.605,0.082-1.278,0.687-1.503c0.605-0.226,1.278,0.082,1.503,0.687l2.246,6.025l0.94-2.96  c0.109-0.342,0.369-0.616,0.706-0.741c0.336-0.126,0.712-0.089,1.019,0.099l2.648,1.622l-2.298-6.164  c-0.225-0.605,0.082-1.278,0.687-1.503c0.605-0.226,1.278,0.082,1.503,0.687L88.004,88.301z M70.999,82.714l-3.429,9.2  c-0.171,0.458-0.608,0.761-1.095,0.761c-0.01,0-0.019,0-0.029,0c-0.498-0.012-0.934-0.339-1.085-0.814l-1.514-4.766l-4.265,2.612  c-0.425,0.26-0.969,0.223-1.354-0.095c-0.385-0.317-0.526-0.843-0.352-1.31l3.481-9.339c0.225-0.605,0.899-0.913,1.503-0.687  c0.605,0.225,0.912,0.899,0.687,1.503l-2.298,6.165l2.648-1.622c0.306-0.188,0.682-0.224,1.019-0.099  c0.337,0.126,0.597,0.399,0.706,0.741l0.94,2.96l2.246-6.025c0.225-0.605,0.898-0.913,1.503-0.687  C70.916,81.436,71.224,82.109,70.999,82.714z M28.881,17.577h23.395c0.645,0,1.169-0.523,1.169-1.169V8.826  c0-0.645-0.523-1.169-1.169-1.169h-2.715V4.169C49.561,3.523,49.037,3,48.392,3H32.765c-0.645,0-1.169,0.523-1.169,1.169v3.489  h-2.715c-0.645,0-1.169,0.523-1.169,1.169v7.582C27.712,17.053,28.235,17.577,28.881,17.577z M30.049,9.995h2.715  c0.645,0,1.169-0.523,1.169-1.169V5.338h13.289v3.489c0,0.645,0.523,1.169,1.169,1.169h2.715v5.244H30.049V9.995z M49.924,18.598  c0.645,0,1.169,0.523,1.169,1.169s-0.523,1.169-1.169,1.169H31.147c-0.645,0-1.169-0.523-1.169-1.169s0.523-1.169,1.169-1.169  H49.924z M55.064,11.449c0-0.645,0.523-1.169,1.169-1.169h8.157c5.359,0,9.719,4.36,9.719,9.719v24.441  c0,0.645-0.523,1.169-1.169,1.169c-0.645,0-1.169-0.523-1.169-1.169V19.998c0-4.07-3.311-7.381-7.381-7.381h-8.157  C55.587,12.617,55.064,12.094,55.064,11.449z M55.648,91.831c0,0.645-0.523,1.169-1.169,1.169H16.767  c-5.359,0-9.719-4.36-9.719-9.719V19.998c0-5.359,4.36-9.719,9.719-9.719h8.157c0.645,0,1.169,0.523,1.169,1.169  c0,0.645-0.523,1.169-1.169,1.169h-8.157c-4.07,0-7.381,3.311-7.381,7.381v63.283c0,4.07,3.311,7.381,7.381,7.381h37.713  C55.125,90.662,55.648,91.186,55.648,91.831z M27.662,35.123c-0.497,0.912-0.895,1.871-1.188,2.866l-2.501,0.634  c-0.518,0.131-0.882,0.598-0.882,1.133v4.792c0,0.535,0.363,1.002,0.882,1.133l2.501,0.634c0.293,0.995,0.691,1.954,1.188,2.866  l-1.321,2.218c-0.274,0.46-0.201,1.046,0.178,1.425l3.388,3.389c0.378,0.378,0.965,0.451,1.425,0.177l2.219-1.321  c0.912,0.497,1.871,0.895,2.865,1.188l0.634,2.502c0.131,0.519,0.598,0.882,1.133,0.882h4.792c0.535,0,1.002-0.363,1.133-0.882  l0.634-2.501c0.995-0.293,1.954-0.691,2.866-1.188l2.218,1.321c0.459,0.274,1.046,0.201,1.425-0.178l3.388-3.388  c0.378-0.378,0.451-0.965,0.178-1.425l-1.321-2.219c0.497-0.912,0.895-1.871,1.188-2.865l2.502-0.634  c0.518-0.131,0.882-0.598,0.882-1.133v-4.792c0-0.535-0.363-1.002-0.882-1.133l-2.501-0.634c-0.293-0.995-0.691-1.954-1.188-2.866  l1.321-2.218c0.274-0.46,0.201-1.046-0.178-1.425l-3.388-3.388c-0.378-0.378-0.965-0.451-1.425-0.178l-2.219,1.321  c-0.912-0.497-1.871-0.895-2.865-1.188l-0.634-2.502c-0.131-0.519-0.598-0.882-1.133-0.882h-4.792c-0.535,0-1.002,0.363-1.133,0.882  l-0.634,2.502c-0.994,0.293-1.953,0.691-2.865,1.188l-2.218-1.321c-0.46-0.274-1.046-0.201-1.425,0.178l-3.388,3.388  c-0.378,0.378-0.451,0.965-0.178,1.425L27.662,35.123z M28.561,39.229c0.3-1.237,0.789-2.417,1.454-3.507  c0.226-0.37,0.228-0.835,0.006-1.207l-1.206-2.025l2.102-2.102l2.026,1.207c0.372,0.221,0.837,0.219,1.207-0.006  c1.09-0.665,2.27-1.154,3.506-1.453c0.421-0.102,0.752-0.429,0.858-0.849l0.579-2.284h2.973l0.579,2.284  c0.106,0.42,0.437,0.747,0.858,0.849c1.236,0.299,2.415,0.788,3.506,1.453c0.37,0.226,0.834,0.228,1.206,0.007l2.026-1.207  l2.102,2.102l-1.206,2.025c-0.222,0.372-0.219,0.837,0.006,1.207c0.665,1.09,1.154,2.27,1.454,3.507  c0.102,0.421,0.429,0.752,0.849,0.858l2.283,0.579v2.973l-2.284,0.579c-0.42,0.106-0.747,0.437-0.849,0.858  c-0.3,1.236-0.789,2.416-1.454,3.506c-0.226,0.37-0.228,0.835-0.006,1.207l1.207,2.025l-2.102,2.102l-2.026-1.206  c-0.372-0.221-0.837-0.219-1.207,0.007c-1.09,0.665-2.269,1.154-3.507,1.454c-0.421,0.102-0.751,0.429-0.858,0.849l-0.579,2.283  h-2.973l-0.579-2.284c-0.106-0.42-0.437-0.747-0.858-0.849c-1.236-0.3-2.416-0.789-3.506-1.454c-0.37-0.226-0.834-0.228-1.206-0.007  l-2.026,1.207l-2.102-2.102l1.206-2.025c0.222-0.372,0.219-0.837-0.007-1.207c-0.665-1.089-1.154-2.269-1.454-3.506  c-0.102-0.421-0.429-0.751-0.848-0.858l-2.284-0.579v-2.973l2.283-0.579C28.132,39.98,28.459,39.65,28.561,39.229z M40.578,53.212  c6.099,0,11.061-4.962,11.061-11.061c0-6.099-4.962-11.061-11.061-11.061c-6.099,0-11.061,4.962-11.061,11.061  C29.518,48.25,34.48,53.212,40.578,53.212z M40.578,33.428c4.81,0,8.723,3.913,8.723,8.723s-3.913,8.723-8.723,8.723  s-8.723-3.913-8.723-8.723S35.769,33.428,40.578,33.428z M43.046,43.749l2.211-1.597l-2.211-1.597  c-0.523-0.378-0.641-1.109-0.263-1.632c0.378-0.523,1.109-0.641,1.632-0.263l3.523,2.544c0.304,0.22,0.485,0.572,0.485,0.948  c0,0.375-0.18,0.728-0.484,0.948l-3.523,2.544c-0.207,0.15-0.446,0.221-0.684,0.221c-0.363,0-0.72-0.168-0.948-0.484  C42.405,44.857,42.523,44.127,43.046,43.749z M36.742,45.644l-3.523-2.545c-0.304-0.22-0.484-0.572-0.484-0.948  c0-0.375,0.18-0.728,0.485-0.948l3.523-2.544c0.523-0.378,1.254-0.26,1.632,0.263c0.378,0.523,0.26,1.254-0.263,1.632l-2.211,1.597  l2.211,1.597c0.523,0.378,0.641,1.109,0.263,1.632c-0.228,0.316-0.586,0.485-0.949,0.485C37.188,45.865,36.949,45.793,36.742,45.644  z M38.783,46.73l1.275-9.468c0.086-0.64,0.673-1.089,1.314-1.002c0.64,0.086,1.089,0.675,1.002,1.314l-1.275,9.468  c-0.079,0.587-0.581,1.013-1.157,1.013c-0.052,0-0.104-0.004-0.157-0.011C39.145,47.958,38.696,47.369,38.783,46.73z M11.733,24.945  c0-0.645,0.523-1.169,1.169-1.169H24.86c0.645,0,1.169,0.523,1.169,1.169c0,0.645-0.523,1.169-1.169,1.169H12.902  C12.257,26.114,11.733,25.591,11.733,24.945z M11.733,30.758c0-0.645,0.523-1.169,1.169-1.169h9.203  c0.645,0,1.169,0.523,1.169,1.169c0,0.645-0.523,1.169-1.169,1.169h-9.203C12.257,31.926,11.733,31.403,11.733,30.758z   M11.733,65.26c0-0.645,0.523-1.169,1.169-1.169h20.312c0.645,0,1.169,0.523,1.169,1.169c0,0.645-0.523,1.169-1.169,1.169H12.902  C12.257,66.429,11.733,65.905,11.733,65.26z M54.694,71.072c0,0.645-0.523,1.169-1.169,1.169H12.902  c-0.645,0-1.169-0.523-1.169-1.169c0-0.645,0.523-1.169,1.169-1.169h40.623C54.171,69.903,54.694,70.427,54.694,71.072z   M54.694,76.885c0,0.645-0.523,1.169-1.169,1.169H12.902c-0.645,0-1.169-0.523-1.169-1.169c0-0.645,0.523-1.169,1.169-1.169h40.623  C54.171,75.716,54.694,76.239,54.694,76.885z M54.694,82.697c0,0.645-0.523,1.169-1.169,1.169H33.214  c-0.645,0-1.169-0.523-1.169-1.169c0-0.645,0.523-1.169,1.169-1.169h20.311C54.171,81.528,54.694,82.052,54.694,82.697z"/></svg>