<svg xmlns="http://www.w3.org/2000/svg" version="1.1" viewBox="-5.0 -10.0 110.0 135.0">
 <path d="m21.734 13.465v-7.1211c0-0.67969 0.55078-1.2305 1.2305-1.2305h62.41c0.32812-0.003906 0.64062 0.125 0.875 0.35938 0.23047 0.23047 0.36328 0.54297 0.36328 0.87109v78.957c0 0.32422-0.13281 0.64062-0.36328 0.87109-0.23438 0.23047-0.54688 0.35938-0.875 0.35938h-7.1094v7.1211c0 0.68359-0.55469 1.2344-1.2383 1.2344h-62.41c-0.67969 0-1.2305-0.55469-1.2305-1.2344v-78.957c0.003906-0.67969 0.55469-1.2305 1.2305-1.2305zm-0.35938 7.875c-0.67969 0-1.2344-0.55078-1.2344-1.2344 0-0.67969 0.55469-1.2344 1.2344-1.2344h48.332c0.68359 0 1.2344 0.55469 1.2344 1.2344 0 0.68359-0.55078 1.2344-1.2344 1.2344zm0 5.5352c-0.67969 0-1.2344-0.55078-1.2344-1.2344 0-0.67969 0.55469-1.2305 1.2344-1.2305h48.332c0.68359 0 1.2344 0.55078 1.2344 1.2305 0 0.68359-0.55078 1.2344-1.2344 1.2344zm0 5.5352c-0.33203 0.011719-0.65625-0.11328-0.89453-0.34766-0.23828-0.23047-0.37109-0.55078-0.37109-0.88281 0-0.33203 0.13281-0.65234 0.37109-0.88281s0.5625-0.35547 0.89453-0.34766h48.332c0.66797 0.019531 1.1953 0.56641 1.1953 1.2305 0 0.66797-0.52734 1.2109-1.1953 1.2305zm0 5.5352v0.003907c-0.67969 0-1.2305-0.55078-1.2305-1.2305 0-0.68359 0.55078-1.2344 1.2305-1.2344h48.332c0.67969 0 1.2305 0.55078 1.2305 1.2344 0 0.67969-0.55078 1.2305-1.2305 1.2305zm19.902 15.785h-9.3281c-0.32422 0-0.64062-0.12891-0.87109-0.35938-0.23047-0.23047-0.35938-0.54688-0.35938-0.87109v-9.3281c-3.5508 0.46875-6.5312 2.9141-7.6836 6.3047-1.1484 3.3945-0.27344 7.1445 2.2578 9.6797 2.5352 2.5352 6.2891 3.4062 9.6797 2.2578 3.3945-1.1523 5.8359-4.1328 6.3047-7.6836zm-4.9766-9.5742c-0.078125-0.042969-0.14844-0.082031-0.22656-0.11719h-0.019531l-0.09375-0.046874-0.066407-0.03125-0.019531-0.007813-0.074219-0.03125-0.019531-0.007813c-0.078125-0.035156-0.15234-0.066406-0.23047-0.10547l-0.019531-0.003906-0.066406-0.023438-0.035156-0.015625-0.054688-0.023437-0.035156-0.011719c-0.14062-0.058594-0.28125-0.10547-0.42969-0.15234l-0.082031-0.023437-0.019531-0.003907-0.078125-0.027343-0.015625-0.003907c-0.11328-0.035156-0.23047-0.066406-0.35547-0.097656l-0.015625-0.003906-0.082031-0.019531h-0.007813c-0.16016-0.042969-0.31641-0.074219-0.47266-0.10547l-0.089844-0.015625-0.09375-0.015625c-0.12891-0.019531-0.25781-0.042969-0.38281-0.054688l-0.007813 8.0547h8.0977c-0.015626-0.13281-0.035157-0.26172-0.058594-0.38672v-0.007812c-0.003906-0.03125-0.011719-0.0625-0.019532-0.089844-0.027343-0.16016-0.0625-0.31641-0.097656-0.47266l-0.003906-0.015626c-0.007812-0.03125-0.011719-0.058593-0.023438-0.089843l-0.050781-0.085938v-0.015625c-0.03125-0.11719-0.066406-0.24219-0.10547-0.35938h-0.003906c-0.003906-0.027343-0.011718-0.054687-0.023437-0.082031v-0.015625l-0.023438-0.085937c-0.042969-0.11719-0.082031-0.23047-0.125-0.34766v-0.015625l-0.03125-0.070312-0.011719-0.023438-0.027343-0.066406-0.007813-0.03125-0.027344-0.0625-0.015624-0.035156-0.027344-0.0625c-0.011719-0.03125-0.023438-0.058594-0.035156-0.085938m-8.6328-8.1133 0.003906-0.003906c5.6602 0.007812 10.527 4.0156 11.625 9.5703 1.0938 5.5508-1.8828 11.109-7.1172 13.27-5.2305 2.1562-11.262 0.32031-14.402-4.3867-3.1406-4.7109-2.5156-10.984 1.4883-14.984 2.2266-2.2305 5.25-3.4805 8.3984-3.4727zm6.6562 5.2188c-0.027344-0.019531-0.050781-0.046875-0.078125-0.070313l-0.019531-0.027343-0.050781-0.046875-0.03125-0.023438-0.050782-0.050781-0.023437-0.019531-0.074219-0.074219-0.070312-0.074219-0.015626-0.015625c-0.019531-0.019531-0.046874-0.042969-0.070312-0.0625l-0.035156-0.035156-0.046875-0.035156-0.035157-0.03125-0.046874-0.035157-0.03125-0.03125-0.050782-0.035156-0.035156-0.03125-0.046875-0.035156-0.035156-0.027344v-0.003906h-0.003907c-0.023437-0.015625-0.046874-0.035156-0.070312-0.058594l-0.035156-0.027344-0.046875-0.035156-0.042969-0.03125-0.046875-0.035156-0.035156-0.023438-0.046875-0.035156-0.042969-0.027344-0.046875-0.035156-0.042969-0.023437c-0.027343-0.019531-0.050781-0.035157-0.082031-0.058594l-0.082031-0.054687-0.050781-0.03125-0.082032-0.054688-0.054687-0.035156-0.046875-0.03125-0.042969-0.023438-0.046875-0.027344v-0.003906c-0.027344-0.015625-0.050781-0.03125-0.082031-0.046875l-0.046875-0.03125-0.042969-0.019531-0.046875-0.03125-0.042969-0.019531-0.050781-0.03125-0.042969-0.019531-0.042969-0.03125-0.035156-0.019532-0.054687-0.03125-0.019531-0.003906m4.2422 4.5039-0.003906-0.015625-0.03125-0.0625-0.015625-0.035156-0.023438-0.058594-0.019531-0.035156-0.023437-0.058594-0.015626-0.035156-0.03125-0.054687v-0.003907h-0.007812c-0.015625-0.027343-0.027344-0.054687-0.042969-0.082031l-0.015625-0.039062-0.03125-0.050782-0.027344-0.050781-0.019531-0.042969-0.027343-0.046875-0.023438-0.046875-0.027344-0.050781-0.023437-0.035156-0.023438-0.050781-0.03125-0.046876-0.019531-0.042968-0.050781-0.082032-0.03125-0.050781-0.023438-0.042969-0.03125-0.050781-0.019531-0.035156-0.03125-0.046875-0.035156-0.050781-0.019532-0.035157-0.035156-0.050781-0.023437-0.035156-0.050781-0.078125h-0.003907l-0.019531-0.035156-0.035156-0.050782-0.03125-0.035156-0.03125-0.046875-0.03125-0.042969-0.035156-0.050781-0.027344-0.03125-0.050782-0.070312-0.007812-0.011719h-0.015625c-0.019531-0.027344-0.042969-0.058594-0.066406-0.085938l-0.007813-0.015624c-0.019531-0.019532-0.039062-0.039063-0.054687-0.0625l-0.027344-0.035157-0.042969-0.046875-0.03125-0.035156-0.035156-0.046875-0.03125-0.035156-0.070312-0.085938c-0.019532-0.023437-0.039063-0.046875-0.0625-0.070312l-0.015626-0.015625-0.082031-0.09375-0.046875-0.050782-0.027344-0.027343-0.046874-0.050781-0.10156-0.10156c-0.019531-0.023437-0.046875-0.050781-0.070313-0.078125m29.609 15.305h-6v26.113h6zm-7.2383-2.4609h8.4688c0.32812-0.003906 0.64062 0.12891 0.87109 0.35938 0.23438 0.23047 0.36328 0.54297 0.35938 0.87109v28.578c0.003906 0.32812-0.12891 0.64062-0.35938 0.87109-0.23047 0.23047-0.54297 0.35937-0.87109 0.35937h-8.4648c-0.32812 0-0.64062-0.12891-0.875-0.35937-0.23047-0.23047-0.35937-0.54297-0.35937-0.87109v-28.578c0-0.32812 0.12891-0.64062 0.35937-0.87109 0.23438-0.23047 0.54688-0.36328 0.875-0.35938zm-12.922 6.0781h8.4766c0.32422 0 0.64062 0.12891 0.87109 0.35938 0.23047 0.23047 0.35937 0.54688 0.35937 0.87109v22.5c0 0.32812-0.12891 0.64062-0.35937 0.87109-0.23047 0.23047-0.54688 0.35937-0.87109 0.35937h-8.4766c-0.67969 0-1.2305-0.55078-1.2305-1.2305v-22.496c0-0.67969 0.55078-1.2305 1.2305-1.2305zm7.2383 2.4609h-6.0078v20.035h6.0078zm-12.922 5.7227h-6v14.312h6zm-7.2422-2.4688h8.4727c0.32812 0 0.64062 0.12891 0.87109 0.35938 0.23438 0.23047 0.36328 0.54688 0.36328 0.87109v16.785c0 0.32812-0.12891 0.64062-0.36328 0.87109-0.23047 0.23047-0.54297 0.35937-0.87109 0.35937h-8.4727c-0.67969 0-1.2305-0.55078-1.2305-1.2305v-16.785c0-0.67969 0.55078-1.2305 1.2305-1.2305zm-12.914 5.1055h8.4688c0.68359 0.003906 1.2344 0.55469 1.2344 1.2383v11.672c-0.003906 0.67969-0.55469 1.2305-1.2344 1.2305h-8.4688c-0.32813 0-0.64063-0.12891-0.87109-0.35937-0.23047-0.23047-0.36328-0.54297-0.35938-0.87109v-11.672c-0.003907-0.32812 0.12891-0.64453 0.35938-0.875 0.23047-0.23047 0.54297-0.36328 0.87109-0.36328zm7.2344 2.4688h-6v9.207h6zm29.211-34.57c-0.67969 0-1.2305-0.55078-1.2305-1.2305 0-0.67969 0.55078-1.2344 1.2305-1.2344h11.051c0.67969 0 1.2344 0.55469 1.2344 1.2344 0 0.67969-0.55469 1.2305-1.2344 1.2305zm0 5.5352c-0.67969 0-1.2305-0.55078-1.2305-1.2305 0-0.67969 0.55078-1.2305 1.2305-1.2305h11.051c0.67969 0 1.2344 0.55078 1.2344 1.2305 0 0.67969-0.55469 1.2305-1.2344 1.2305zm0 5.5352c-0.33203 0.011718-0.65625-0.11328-0.89453-0.34766-0.23828-0.23047-0.375-0.55078-0.375-0.88281s0.13672-0.65234 0.375-0.88281c0.23828-0.23047 0.5625-0.35938 0.89453-0.34766h11.051c0.66797 0.019531 1.1953 0.56641 1.1953 1.2305 0 0.66797-0.52734 1.2109-1.1953 1.2305zm19.609 29.512h5.8789v-76.488h-59.945v5.8945h52.828c0.68359 0 1.2344 0.55078 1.2383 1.2344zm-2.4688-68.133h-59.945v76.488h59.945z"/>
<text x="0.0" y="117.5" font-size="5.0" font-weight="bold" font-family="Arbeit Regular, Helvetica, Arial-Unicode, Arial, Sans-serif" fill="#000000">Created by Vior</text><text x="0.0" y="122.5" font-size="5.0" font-weight="bold" font-family="Arbeit Regular, Helvetica, Arial-Unicode, Arial, Sans-serif" fill="#000000">from Noun Project</text></svg>