<svg xmlns="http://www.w3.org/2000/svg" version="1.1" viewBox="-5.0 -10.0 110.0 135.0">
 <path d="m94.449 63.027c-0.95703-1.6602-2.5117-2.8516-4.3789-3.3516-1.8633-0.5-3.8047-0.24609-5.4648 0.71094l-18.328 10.59c-0.035156-1.1719-0.36328-2.3281-0.96875-3.3789-0.96484-1.6719-2.5156-2.8633-4.3672-3.3594l-26.43-7.082c-2.9648-0.79297-5.8125-0.41797-8.4688 1.1133l-6.7227 3.8828-0.80078-1.3828c-0.13281-0.22656-0.34766-0.39062-0.59766-0.46094-0.25391-0.066406-0.52344-0.03125-0.75 0.097656l-12.09 6.9805c-0.47266 0.27344-0.63281 0.875-0.35938 1.3477l15.117 26.184c0.13281 0.22656 0.34766 0.39062 0.59766 0.46094 0.085938 0.023438 0.16797 0.035156 0.25391 0.035156 0.17188 0 0.34375-0.042968 0.49219-0.13281l12.09-6.9805c0.47266-0.27344 0.63281-0.875 0.35937-1.3477l-1.0273-1.7812 3.5977-2.0781 24.762 5.168c0.61719 0.16406 1.2383 0.24219 1.8594 0.24219 1.2461 0 2.4727-0.32422 3.5781-0.96094l25.406-14.668c1.6602-0.95703 2.8516-2.5117 3.3516-4.375 0.5-1.8672 0.24609-3.8086-0.71094-5.4727zm-73.395 30.051-14.129-24.473 10.379-5.9922 14.129 24.473zm72.199-25.094c-0.36328 1.3555-1.2266 2.4844-2.4297 3.1797l-25.406 14.668c-1.2031 0.69531-2.6133 0.87891-3.9688 0.51562-0.019531-0.003906-0.035157-0.007812-0.054688-0.011718l-25.156-5.25c-0.23828-0.050782-0.48438-0.011719-0.69531 0.11328l-3.9219 2.2617-11.312-19.598 6.7227-3.8828c2.1875-1.2617 4.5312-1.5703 6.9727-0.91797l26.426 7.082c1.3438 0.35938 2.4688 1.2266 3.168 2.4414 0.69922 1.2148 0.89062 2.6211 0.53125 3.9648s-1.2266 2.4688-2.4414 3.168-2.6211 0.89062-3.9648 0.52734l-13.789-3.6953c-0.52734-0.14062-1.0664 0.17188-1.2109 0.69922-0.14062 0.52734 0.17188 1.0664 0.69922 1.2109l13.789 3.6953c0.61719 0.16406 1.2422 0.24609 1.8633 0.24609 1.25 0 2.4844-0.32812 3.6016-0.97266 1.5469-0.89453 2.6836-2.2891 3.2383-3.9648l19.684-11.363c1.2031-0.69531 2.6133-0.87891 3.9688-0.51562 1.3555 0.36328 2.4844 1.2266 3.1797 2.4297 0.6875 1.2031 0.87109 2.6133 0.50781 3.9688zm-55.391-39.215c0.28906 1.7734 1.8008 3.0312 3.5977 2.9961 1.5-0.03125 2.9258 0.75 3.6992 2.0391 0.77734 1.2891 0.80469 2.9062 0.074219 4.2227-0.86719 1.5664-0.46484 3.4922 0.96484 4.5781 1.6797 1.2773 3.5234 2.2969 5.4883 3.0391 0.42188 0.16016 0.85547 0.23438 1.2812 0.23438 1.2656 0 2.4648-0.67969 3.1133-1.8555 0.72656-1.3203 2.1133-2.1562 3.6172-2.1875 0.88281-0.015626 1.7383 0.24609 2.457 0.73437l-4.1602 4.1602c-0.96484 0.96484-1.4961 2.25-1.4961 3.6211 0 1.3711 0.53125 2.6562 1.4961 3.6211l1.6875 1.6875c0.99609 0.99609 2.3086 1.4961 3.6172 1.4961 1.3125 0 2.6211-0.5 3.6211-1.4961l12.695-12.695c2.375 0.35938 4.8047-0.097656 6.8945-1.3047 4.0391-2.332 6.0742-6.957 5.0625-11.504-0.066407-0.30859-0.27734-0.5625-0.56641-0.69141-0.28906-0.125-0.61719-0.10938-0.89062 0.046875l-6.293 3.6328c-0.91406 0.52734-2.082 0.21484-2.6094-0.69922-0.25391-0.4375-0.32031-0.95312-0.1875-1.4492 0.13281-0.49609 0.44922-0.90625 0.88672-1.1602l6.293-3.6328c0.27344-0.15625 0.45312-0.43359 0.48828-0.74609 0.035157-0.3125-0.082031-0.62109-0.3125-0.83594-2.0859-1.9141-4.7617-2.8672-7.4453-2.7969-0.007812-0.042969-0.011719-0.085938-0.019531-0.12891-0.28906-1.7734-1.7969-3.0352-3.5977-2.9961-1.5 0.03125-2.9258-0.75-3.6992-2.0391-0.77734-1.2891-0.80469-2.9062-0.074219-4.2227 0.86719-1.5664 0.46484-3.4922-0.96484-4.5781-1.6758-1.2773-3.5234-2.2969-5.4883-3.0391-1.6797-0.63281-3.5273 0.046876-4.3945 1.6211-0.72656 1.3203-2.1133 2.1562-3.6172 2.1875-1.5039 0.03125-2.9219-0.75781-3.6953-2.0508-0.92578-1.5391-2.7969-2.1523-4.4531-1.4531-1.9336 0.81641-3.7422 1.9062-5.3711 3.2422-1.3867 1.1367-1.7188 3.0781-0.79297 4.6094 0.77734 1.2891 0.80859 2.9062 0.082031 4.2227-0.72656 1.3164-2.1172 2.1523-3.6211 2.1758-1.7969 0.03125-3.2617 1.3477-3.4844 3.1289-0.12891 1.0352-0.18359 2.0898-0.16406 3.1367 0.019531 1.0508 0.11328 2.1016 0.28125 3.1289zm43.348-4.9688c1.6641 0 3.3164 0.48438 4.7461 1.4297l-5.0273 2.9023c-0.89453 0.51563-1.5391 1.3555-1.8086 2.3594-0.26953 1.0039-0.13281 2.0508 0.38281 2.9492 1.0703 1.8555 3.4531 2.4922 5.3086 1.4219l5.0273-2.9023c0.19531 3.2344-1.4336 6.332-4.3164 7.9961-1.8281 1.0547-3.9766 1.4062-6.0469 0.98438-0.32422-0.066406-0.66016 0.035156-0.89453 0.26953l-13.055 13.059c-1.2266 1.2266-3.2188 1.2266-4.4453 0l-1.6875-1.6875c-0.59375-0.58984-0.91797-1.3828-0.91797-2.2227 0-0.84375 0.32422-1.6328 0.91797-2.2227l13.059-13.059c0.23438-0.23438 0.33594-0.57031 0.26953-0.89453-0.74219-3.6484 0.92969-7.3516 4.1562-9.2148 1.3555-0.78125 2.8477-1.168 4.332-1.168zm-41.504-1.0469c0.10156-0.79688 0.75781-1.3867 1.5586-1.4023 2.2109-0.039062 4.2461-1.2617 5.3164-3.1953 1.0664-1.9336 1.0234-4.3086-0.12109-6.1992-0.41406-0.6875-0.26563-1.5547 0.35547-2.0625 1.4805-1.2148 3.125-2.207 4.8828-2.9492 0.74219-0.3125 1.5781-0.039062 1.9922 0.65234 1.1367 1.8945 3.2148 3.0469 5.4258 3.0078 2.207-0.042969 4.2422-1.2695 5.3086-3.207 0.38672-0.70313 1.2148-1.0078 1.9648-0.72656 1.7852 0.67578 3.4648 1.6055 4.9922 2.7656 0.64063 0.48438 0.82031 1.3477 0.42969 2.0508-1.0703 1.9336-1.0273 4.3086 0.10938 6.1992 1.1406 1.8906 3.2188 3.0352 5.4297 2.9961 0.80078-0.019532 1.4805 0.54688 1.6094 1.3398 0.003906 0.015624 0.003906 0.03125 0.007812 0.046874-1.0625 0.23047-2.1055 0.625-3.0898 1.1953-3.8047 2.1992-5.8477 6.4805-5.1953 10.785l-7.1211 7.1211c-1.1094-0.85938-2.4883-1.3203-3.9062-1.2969-2.2109 0.042969-4.2422 1.2695-5.3086 3.207-0.38672 0.70312-1.2148 1.0078-1.9688 0.72656-1.7852-0.67578-3.4648-1.6055-4.9922-2.7656-0.64062-0.48438-0.82031-1.3477-0.42969-2.0508 1.0703-1.9336 1.0273-4.3086-0.10938-6.1992-1.1406-1.8906-3.2148-3.0352-5.4297-2.9961-0.79688 0.019531-1.4805-0.54688-1.6094-1.3438-0.15234-0.93359-0.23828-1.8945-0.25781-2.8477-0.011719-0.95312 0.039063-1.9141 0.15625-2.8516zm19.68 10.559h0.15625c2.1562-0.039062 4.168-0.91797 5.6641-2.4727 1.4961-1.5547 2.2969-3.5977 2.2578-5.7539-0.082032-4.4531-3.7734-8.0039-8.2266-7.9219-2.1562 0.039063-4.168 0.91797-5.6641 2.4727-1.4961 1.5547-2.2969 3.5977-2.2578 5.7539 0.039063 2.1562 0.91797 4.168 2.4727 5.6641 1.5156 1.457 3.4961 2.2578 5.5977 2.2578zm-4.3906-12.309c1.1289-1.1719 2.6523-1.8359 4.2812-1.8672h0.11719c3.3125 0 6.0352 2.6641 6.0977 5.9883 0.0625 3.3633-2.6211 6.1523-5.9883 6.2148-1.6367 0.03125-3.1719-0.57422-4.3477-1.707-1.1719-1.1289-1.8359-2.6523-1.8672-4.2812-0.027343-1.6289 0.57813-3.1758 1.707-4.3477z"/>
</svg>